<svg width="90" height="97" viewBox="0 0 90 97" fill="none" xmlns="http://www.w3.org/2000/svg">
<path d="M80.3571 0H9.64286C7.08541 0 4.63271 1.09496 2.82433 3.044C1.01594 4.99304 0 7.6365 0 10.3929L0 86.6071C0 89.3635 1.01594 92.007 2.82433 93.956C4.63271 95.905 7.08541 97 9.64286 97H37.2154V64.0222H24.5592V48.5H37.2154V36.6695C37.2154 23.2129 44.6484 15.7798 56.033 15.7798C61.4853 15.7798 67.1866 16.8278 67.1866 16.8278V30.0354H60.9047C54.7152 30.0354 52.7846 34.1752 52.7846 38.4211V48.5H66.602L64.3922 64.0222H52.7846V97H80.3571C82.9146 97 85.3673 95.905 87.1757 93.956C88.9841 92.007 90 89.3635 90 86.6071V10.3929C90 7.6365 88.9841 4.99304 87.1757 3.044C85.3673 1.09496 82.9146 0 80.3571 0Z" fill="#5BB2CD"/>
</svg>
