<svg width="93" height="92" viewBox="0 0 93 92" fill="none" xmlns="http://www.w3.org/2000/svg">
<path d="M46.0153 22.1712C32.9604 22.1712 22.4303 32.5892 22.4303 45.505C22.4303 58.4208 32.9604 68.8388 46.0153 68.8388C59.0701 68.8388 69.6002 58.4208 69.6002 45.505C69.6002 32.5892 59.0701 22.1712 46.0153 22.1712ZM46.0153 60.675C37.5789 60.675 30.682 53.8719 30.682 45.505C30.682 37.1381 37.5583 30.335 46.0153 30.335C54.4722 30.335 61.3486 37.1381 61.3486 45.505C61.3486 53.8719 54.4517 60.675 46.0153 60.675ZM76.0661 21.2167C76.0661 24.2426 73.6029 26.6592 70.565 26.6592C67.5065 26.6592 65.0639 24.2223 65.0639 21.2167C65.0639 18.2111 67.527 15.7742 70.565 15.7742C73.6029 15.7742 76.0661 18.2111 76.0661 21.2167ZM91.6867 26.7405C91.3378 19.4499 89.6546 12.992 84.2561 7.67132C78.8782 2.35064 72.3508 0.685393 64.9817 0.31985C57.3869 -0.106617 34.6231 -0.106617 27.0283 0.31985C19.6798 0.665085 13.1524 2.33033 7.75388 7.65101C2.35542 12.9717 0.692769 19.4296 0.323292 26.7202C-0.107764 34.2341 -0.107764 56.7556 0.323292 64.2695C0.672243 71.5601 2.35542 78.018 7.75388 83.3387C13.1524 88.6594 19.6592 90.3246 27.0283 90.6901C34.6231 91.1166 57.3869 91.1166 64.9817 90.6901C72.3508 90.3449 78.8782 88.6797 84.2561 83.3387C89.6341 78.018 91.3172 71.5601 91.6867 64.2695C92.1178 56.7556 92.1178 34.2544 91.6867 26.7405ZM81.875 72.3318C80.274 76.3121 77.1745 79.3786 73.1308 80.983C67.0755 83.359 52.7069 82.8107 46.0153 82.8107C39.3236 82.8107 24.9346 83.3387 18.8998 80.983C14.8766 79.3989 11.7771 76.3324 10.1555 72.3318C7.75388 66.3409 8.3081 52.1254 8.3081 45.505C8.3081 38.8846 7.77441 24.6488 10.1555 18.6782C11.7565 14.6979 14.856 11.6314 18.8998 10.027C24.9551 7.65101 39.3236 8.19933 46.0153 8.19933C52.7069 8.19933 67.096 7.67132 73.1308 10.027C77.154 11.6111 80.2535 14.6776 81.875 18.6782C84.2766 24.6691 83.7224 38.8846 83.7224 45.505C83.7224 52.1254 84.2766 66.3612 81.875 72.3318Z" fill="#5BB2CD"/>
</svg>
