<svg width="91" height="90" viewBox="0 0 91 90" fill="none" xmlns="http://www.w3.org/2000/svg">
<path d="M20.3694 90.0001H1.50313V29.9117H20.3694V90.0001ZM10.9261 21.7151C4.89328 21.7151 0 16.773 0 10.8064C4.31803e-08 7.94039 1.15114 5.19177 3.20018 3.1652C5.24922 1.13864 8.02831 0.00012207 10.9261 0.00012207C13.8239 0.00012207 16.603 1.13864 18.652 3.1652C20.701 5.19177 21.8522 7.94039 21.8522 10.8064C21.8522 16.773 16.9569 21.7151 10.9261 21.7151ZM90.9797 90.0001H72.1541V60.7495C72.1541 53.7783 72.0119 44.8384 62.3452 44.8384C52.5362 44.8384 51.0331 52.4122 51.0331 60.2472V90.0001H32.1872V29.9117H50.2816V38.1083H50.5456C53.0644 33.3873 59.217 28.405 68.3962 28.405C87.49 28.405 91 40.8405 91 56.9927V90.0001H90.9797Z" fill="#5BB2CD"/>
</svg>
