<svg width="196" height="55" viewBox="0 0 196 55" fill="none" xmlns="http://www.w3.org/2000/svg">
<path d="M59.656 29L56.776 24.95C56.452 24.986 56.116 25.004 55.768 25.004H52.384V29H51.052V16.4H55.768C57.376 16.4 58.636 16.784 59.548 17.552C60.46 18.32 60.916 19.376 60.916 20.72C60.916 21.704 60.664 22.538 60.16 23.222C59.668 23.894 58.96 24.38 58.036 24.68L61.114 29H59.656ZM55.732 23.87C56.98 23.87 57.934 23.594 58.594 23.042C59.254 22.49 59.584 21.716 59.584 20.72C59.584 19.7 59.254 18.92 58.594 18.38C57.934 17.828 56.98 17.552 55.732 17.552H52.384V23.87H55.732ZM72.0338 24.662H64.1138C64.1858 25.646 64.5638 26.444 65.2478 27.056C65.9318 27.656 66.7958 27.956 67.8398 27.956C68.4278 27.956 68.9678 27.854 69.4598 27.65C69.9518 27.434 70.3778 27.122 70.7378 26.714L71.4578 27.542C71.0378 28.046 70.5098 28.43 69.8738 28.694C69.2498 28.958 68.5598 29.09 67.8038 29.09C66.8318 29.09 65.9678 28.886 65.2118 28.478C64.4678 28.058 63.8858 27.482 63.4658 26.75C63.0458 26.018 62.8358 25.19 62.8358 24.266C62.8358 23.342 63.0338 22.514 63.4298 21.782C63.8378 21.05 64.3898 20.48 65.0858 20.072C65.7938 19.664 66.5858 19.46 67.4618 19.46C68.3378 19.46 69.1238 19.664 69.8198 20.072C70.5158 20.48 71.0618 21.05 71.4578 21.782C71.8538 22.502 72.0518 23.33 72.0518 24.266L72.0338 24.662ZM67.4618 20.558C66.5498 20.558 65.7818 20.852 65.1578 21.44C64.5458 22.016 64.1978 22.772 64.1138 23.708H70.8278C70.7438 22.772 70.3898 22.016 69.7658 21.44C69.1538 20.852 68.3858 20.558 67.4618 20.558ZM77.7014 19.46C78.9374 19.46 79.8854 19.772 80.5454 20.396C81.2054 21.008 81.5354 21.92 81.5354 23.132V29H80.3114V27.524C80.0234 28.016 79.5974 28.4 79.0334 28.676C78.4814 28.952 77.8214 29.09 77.0534 29.09C75.9974 29.09 75.1574 28.838 74.5334 28.334C73.9094 27.83 73.5974 27.164 73.5974 26.336C73.5974 25.532 73.8854 24.884 74.4614 24.392C75.0494 23.9 75.9794 23.654 77.2514 23.654H80.2574V23.078C80.2574 22.262 80.0294 21.644 79.5734 21.224C79.1174 20.792 78.4514 20.576 77.5754 20.576C76.9754 20.576 76.3994 20.678 75.8474 20.882C75.2954 21.074 74.8214 21.344 74.4254 21.692L73.8494 20.738C74.3294 20.33 74.9054 20.018 75.5774 19.802C76.2494 19.574 76.9574 19.46 77.7014 19.46ZM77.2514 28.082C77.9714 28.082 78.5894 27.92 79.1054 27.596C79.6214 27.26 80.0054 26.78 80.2574 26.156V24.608H77.2874C75.6674 24.608 74.8574 25.172 74.8574 26.3C74.8574 26.852 75.0674 27.29 75.4874 27.614C75.9074 27.926 76.4954 28.082 77.2514 28.082ZM93.6818 15.644V29H92.4578V27.128C92.0738 27.764 91.5638 28.25 90.9278 28.586C90.3038 28.922 89.5958 29.09 88.8038 29.09C87.9158 29.09 87.1118 28.886 86.3918 28.478C85.6718 28.07 85.1078 27.5 84.6998 26.768C84.2918 26.036 84.0878 25.202 84.0878 24.266C84.0878 23.33 84.2918 22.496 84.6998 21.764C85.1078 21.032 85.6718 20.468 86.3918 20.072C87.1118 19.664 87.9158 19.46 88.8038 19.46C89.5718 19.46 90.2618 19.622 90.8738 19.946C91.4978 20.258 92.0078 20.72 92.4038 21.332V15.644H93.6818ZM88.9118 27.956C89.5718 27.956 90.1658 27.806 90.6938 27.506C91.2338 27.194 91.6538 26.756 91.9538 26.192C92.2658 25.628 92.4218 24.986 92.4218 24.266C92.4218 23.546 92.2658 22.904 91.9538 22.34C91.6538 21.776 91.2338 21.344 90.6938 21.044C90.1658 20.732 89.5718 20.576 88.9118 20.576C88.2398 20.576 87.6338 20.732 87.0938 21.044C86.5658 21.344 86.1458 21.776 85.8338 22.34C85.5338 22.904 85.3838 23.546 85.3838 24.266C85.3838 24.986 85.5338 25.628 85.8338 26.192C86.1458 26.756 86.5658 27.194 87.0938 27.506C87.6338 27.806 88.2398 27.956 88.9118 27.956ZM115.308 16.4V29H114.03V18.92L109.08 27.398H108.45L103.5 18.974V29H102.222V16.4H103.32L108.792 25.742L114.21 16.4H115.308ZM123.013 29.09C122.101 29.09 121.279 28.886 120.547 28.478C119.815 28.058 119.239 27.482 118.819 26.75C118.399 26.018 118.189 25.19 118.189 24.266C118.189 23.342 118.399 22.514 118.819 21.782C119.239 21.05 119.815 20.48 120.547 20.072C121.279 19.664 122.101 19.46 123.013 19.46C123.925 19.46 124.747 19.664 125.479 20.072C126.211 20.48 126.781 21.05 127.189 21.782C127.609 22.514 127.819 23.342 127.819 24.266C127.819 25.19 127.609 26.018 127.189 26.75C126.781 27.482 126.211 28.058 125.479 28.478C124.747 28.886 123.925 29.09 123.013 29.09ZM123.013 27.956C123.685 27.956 124.285 27.806 124.813 27.506C125.353 27.194 125.773 26.756 126.073 26.192C126.373 25.628 126.523 24.986 126.523 24.266C126.523 23.546 126.373 22.904 126.073 22.34C125.773 21.776 125.353 21.344 124.813 21.044C124.285 20.732 123.685 20.576 123.013 20.576C122.341 20.576 121.735 20.732 121.195 21.044C120.667 21.344 120.247 21.776 119.935 22.34C119.635 22.904 119.485 23.546 119.485 24.266C119.485 24.986 119.635 25.628 119.935 26.192C120.247 26.756 120.667 27.194 121.195 27.506C121.735 27.806 122.341 27.956 123.013 27.956ZM131.652 21.386C131.952 20.75 132.396 20.27 132.984 19.946C133.584 19.622 134.322 19.46 135.198 19.46V20.702L134.892 20.684C133.896 20.684 133.116 20.99 132.552 21.602C131.988 22.214 131.706 23.072 131.706 24.176V29H130.428V19.532H131.652V21.386ZM145.669 24.662H137.749C137.821 25.646 138.199 26.444 138.883 27.056C139.567 27.656 140.431 27.956 141.475 27.956C142.063 27.956 142.603 27.854 143.095 27.65C143.587 27.434 144.013 27.122 144.373 26.714L145.093 27.542C144.673 28.046 144.145 28.43 143.509 28.694C142.885 28.958 142.195 29.09 141.439 29.09C140.467 29.09 139.603 28.886 138.847 28.478C138.103 28.058 137.521 27.482 137.101 26.75C136.681 26.018 136.471 25.19 136.471 24.266C136.471 23.342 136.669 22.514 137.065 21.782C137.473 21.05 138.025 20.48 138.721 20.072C139.429 19.664 140.221 19.46 141.097 19.46C141.973 19.46 142.759 19.664 143.455 20.072C144.151 20.48 144.697 21.05 145.093 21.782C145.489 22.502 145.687 23.33 145.687 24.266L145.669 24.662ZM141.097 20.558C140.185 20.558 139.417 20.852 138.793 21.44C138.181 22.016 137.833 22.772 137.749 23.708H144.463C144.379 22.772 144.025 22.016 143.401 21.44C142.789 20.852 142.021 20.558 141.097 20.558Z" fill="black"/>
<rect x="1.5" y="1.5" width="193" height="52" rx="26" stroke="#05C9C9" stroke-opacity="0.89" stroke-width="3"/>
</svg>
