<svg width="92" height="91" viewBox="0 0 92 91" fill="none" xmlns="http://www.w3.org/2000/svg">
<path d="M25.0861 0.737297C24.8858 0.503599 24.6477 0.318172 24.3856 0.19165C24.1236 0.0651285 23.8426 0 23.5588 0C23.275 0 22.994 0.0651285 22.7319 0.19165C22.4698 0.318172 22.2317 0.503599 22.0314 0.737297L10.5889 13.9626L6.50999 9.3418C6.30967 9.1081 6.07163 8.92267 5.80953 8.79615C5.54744 8.66963 5.26644 8.6045 4.98264 8.6045C4.69885 8.6045 4.41785 8.66963 4.15575 8.79615C3.89366 8.92267 3.65562 9.1081 3.4553 9.3418L0.634201 12.6257C0.433181 12.8586 0.273682 13.1353 0.164852 13.44C0.0560215 13.7447 0 14.0714 0 14.4013C0 14.7312 0.0560215 15.0579 0.164852 15.3626C0.273682 15.6673 0.433181 15.944 0.634201 16.1769L9.18554 26.0787C9.61238 26.5504 10.1788 26.8134 10.7677 26.8134C11.3566 26.8134 11.923 26.5504 12.3498 26.0787L15.1512 22.8157L28.1246 7.73537C28.5288 7.26507 28.7572 6.62844 28.7603 5.9636C28.7633 5.29877 28.5407 4.65936 28.1408 4.18411L25.0861 0.737297ZM25.0861 33.9917C24.8858 33.758 24.6477 33.5726 24.3856 33.4461C24.1236 33.3196 23.8426 33.2544 23.5588 33.2544C23.275 33.2544 22.994 33.3196 22.7319 33.4461C22.4698 33.5726 22.2317 33.758 22.0314 33.9917L10.5889 47.3027L6.50999 42.6861C6.30967 42.4524 6.07163 42.2669 5.80953 42.1404C5.54744 42.0139 5.26644 41.9488 4.98264 41.9488C4.69885 41.9488 4.41785 42.0139 4.15575 42.1404C3.89366 42.2669 3.65562 42.4524 3.4553 42.6861L0.634201 45.9637C0.433181 46.1966 0.273682 46.4733 0.164852 46.778C0.0560215 47.0827 0 47.4094 0 47.7393C0 48.0692 0.0560215 48.3959 0.164852 48.7006C0.273682 49.0053 0.433181 49.282 0.634201 49.5149L9.16398 59.4376C9.59051 59.9091 10.1566 60.1721 10.7452 60.1721C11.3338 60.1721 11.8999 59.9091 12.3265 59.4376L15.1476 56.16L28.121 41.0734C28.5237 40.6064 28.7513 39.9733 28.7544 39.3121C28.7574 38.6508 28.5356 38.015 28.1372 37.543L25.0861 33.9917ZM11.4999 70.1958C6.73999 70.1958 2.76889 74.6871 2.76889 80.2229C2.76889 85.7587 6.74358 90.25 11.4999 90.25C13.7874 90.25 15.9812 89.1936 17.5987 87.3131C19.2162 85.4327 20.1249 82.8823 20.1249 80.2229C20.1249 77.5636 19.2162 75.0131 17.5987 73.1327C15.9812 71.2522 13.7874 70.1958 11.4999 70.1958ZM89.125 73.5382H37.3749C36.6124 73.5382 35.8812 73.8903 35.342 74.5171C34.8028 75.1439 34.4999 75.9941 34.4999 76.8805V83.5653C34.4999 84.4517 34.8028 85.3019 35.342 85.9287C35.8812 86.5555 36.6124 86.9076 37.3749 86.9076H89.125C89.8875 86.9076 90.6188 86.5555 91.1579 85.9287C91.6971 85.3019 92 84.4517 92 83.5653V76.8805C92 75.9941 91.6971 75.1439 91.1579 74.5171C90.6188 73.8903 89.8875 73.5382 89.125 73.5382ZM89.125 6.69088H37.3749C36.6124 6.69088 35.8812 7.04303 35.342 7.66984C34.8028 8.29666 34.4999 9.1468 34.4999 10.0332V16.718C34.4999 17.6044 34.8028 18.4546 35.342 19.0814C35.8812 19.7082 36.6124 20.0603 37.3749 20.0603H89.125C89.8875 20.0603 90.6188 19.7082 91.1579 19.0814C91.6971 18.4546 92 17.6044 92 16.718V10.0332C92 9.1468 91.6971 8.29666 91.1579 7.66984C90.6188 7.04303 89.8875 6.69088 89.125 6.69088ZM89.125 40.1145H37.3749C36.6124 40.1145 35.8812 40.4667 35.342 41.0935C34.8028 41.7203 34.4999 42.5704 34.4999 43.4569V50.1416C34.4999 51.0281 34.8028 51.8782 35.342 52.505C35.8812 53.1319 36.6124 53.484 37.3749 53.484H89.125C89.8875 53.484 90.6188 53.1319 91.1579 52.505C91.6971 51.8782 92 51.0281 92 50.1416V43.4569C92 42.5704 91.6971 41.7203 91.1579 41.0935C90.6188 40.4667 89.8875 40.1145 89.125 40.1145Z" fill="#05C9C9" fill-opacity="0.89"/>
</svg>
