<svg width="92" height="90" viewBox="0 0 92 90" fill="none" xmlns="http://www.w3.org/2000/svg">
<path d="M82.5434 22.3025C82.6018 23.2813 82.6018 24.2602 82.6018 25.239C82.6018 55.0921 63.6298 89.49 28.9544 89.49C18.2716 89.49 8.34778 85.7844 0 79.3526C1.51783 79.5622 2.97707 79.6321 4.5533 79.6321C13.3679 79.6321 21.4823 76.0666 27.962 69.9841C19.6726 69.7742 12.7259 63.2723 10.3324 54.3232C11.5 54.5328 12.6675 54.6727 13.8935 54.6727C15.5863 54.6727 17.2794 54.3929 18.8554 53.9038C10.2158 51.8062 3.7359 42.7174 3.7359 31.7409V31.4614C6.24596 33.1393 9.165 34.188 12.2587 34.3277C7.17998 30.2726 3.85269 23.3512 3.85269 15.5208C3.85269 11.326 4.78653 7.48072 6.42116 4.12482C15.703 17.828 29.6548 26.7768 45.2994 27.7558C45.0076 26.0778 44.8324 24.3302 44.8324 22.5823C44.8324 10.1374 53.2386 0 63.6878 0C69.1167 0 74.0202 2.72664 77.4645 7.13123C81.7258 6.15248 85.8121 4.26471 89.4315 1.67795C88.0303 6.92162 85.0533 11.3262 81.1422 14.1226C84.9366 13.6334 88.6143 12.3747 92 10.627C89.4319 15.1013 86.221 19.0863 82.5434 22.3025Z" fill="#5BB2CD"/>
</svg>
