<svg width="90" height="92" viewBox="0 0 90 92" fill="none" xmlns="http://www.w3.org/2000/svg">
<path d="M88.0879 71.0954L67.505 50.0561C63.4447 45.9057 57.3806 45.0972 52.4941 47.5586L33.7569 28.4058V17.2483L11.2582 0L0.00878844 11.4989L16.8828 34.4966H27.7983L46.5355 53.6495C44.145 58.6443 44.9184 64.8429 48.9787 68.9933L69.5616 90.0326C72.1278 92.6558 76.276 92.6558 78.8247 90.0326L88.0879 80.564C90.6366 77.9408 90.6366 73.7006 88.0879 71.0954ZM58.3122 40.4257C63.2865 40.4257 67.962 42.4021 71.4775 45.9955L74.8874 49.4811C77.6646 48.2414 80.3012 46.5166 82.5862 44.1808C89.1073 37.5151 91.3221 28.1363 89.248 19.62C88.8613 18.0029 86.875 17.446 85.715 18.6318L72.6376 31.9992L60.7027 29.969L58.7165 17.7694L71.7938 4.40191C72.9539 3.21609 72.3915 1.18582 70.792 0.772581C62.4604 -1.32956 53.2851 0.934284 46.7816 7.58207C41.7721 12.7027 39.4167 19.4583 39.5398 26.1959L53.9706 40.9468C55.3944 40.6054 56.8709 40.4257 58.3122 40.4257ZM40.0495 55.1587L30.0833 44.9714L3.29571 72.3711C-1.09857 76.8628 -1.09857 84.1394 3.29571 88.6312C7.69 93.1229 14.8087 93.1229 19.203 88.6312L40.9284 66.424C39.5925 62.8486 39.1882 58.9497 40.0495 55.1587ZM11.2582 84.8042C8.93798 84.8042 7.03965 82.8638 7.03965 80.4921C7.03965 78.1025 8.9204 76.1801 11.2582 76.1801C13.5959 76.1801 15.4767 78.1025 15.4767 80.4921C15.4767 82.8638 13.5959 84.8042 11.2582 84.8042Z" fill="#05C9C9" fill-opacity="0.89"/>
</svg>
